<?xml version="1.0" encoding="UTF-8" standalone="no"?>
<!DOCTYPE svg PUBLIC "-//W3C//DTD SVG 1.1//EN"
 "http://www.w3.org/Graphics/SVG/1.1/DTD/svg11.dtd">
<!-- Generated by graphviz version 2.38.0 (20140413.2041)
 -->
<!-- Title: %3 Pages: 1 -->
<svg width="2125pt" height="620pt"
 viewBox="0.00 0.00 2125.14 620.00" xmlns="http://www.w3.org/2000/svg" xmlns:xlink="http://www.w3.org/1999/xlink">
<g id="graph0" class="graph" transform="scale(1 1) rotate(0) translate(4 616)">
<title>%3</title>
<polygon fill="white" stroke="none" points="-4,4 -4,-616 2121.14,-616 2121.14,4 -4,4"/>
<!-- [root] azuread_application.datalake -->
<g id="node1" class="node"><title>[root] azuread_application.datalake</title>
<polygon fill="none" stroke="black" points="1075.5,-180 848.5,-180 848.5,-144 1075.5,-144 1075.5,-180"/>
<text text-anchor="middle" x="962" y="-158.3" font-family="Times,serif" font-size="14.00">azuread_application.datalake</text>
</g>
<!-- [root] provider.azuread -->
<g id="node9" class="node"><title>[root] provider.azuread</title>
<polygon fill="none" stroke="black" points="1213,-108 1087.15,-90 1213,-72 1338.85,-90 1213,-108"/>
<text text-anchor="middle" x="1213" y="-86.3" font-family="Times,serif" font-size="14.00">provider.azuread</text>
</g>
<!-- [root] azuread_application.datalake&#45;&gt;[root] provider.azuread -->
<g id="edge1" class="edge"><title>[root] azuread_application.datalake&#45;&gt;[root] provider.azuread</title>
<path fill="none" stroke="black" d="M1023.08,-143.966C1065.89,-132.027 1122.42,-116.263 1162.64,-105.044"/>
<polygon fill="black" stroke="black" points="1163.81,-108.353 1172.5,-102.295 1161.93,-101.61 1163.81,-108.353"/>
</g>
<!-- [root] random_string.name_prefix -->
<g id="node13" class="node"><title>[root] random_string.name_prefix</title>
<polygon fill="none" stroke="black" points="1069,-108 855,-108 855,-72 1069,-72 1069,-108"/>
<text text-anchor="middle" x="962" y="-86.3" font-family="Times,serif" font-size="14.00">random_string.name_prefix</text>
</g>
<!-- [root] azuread_application.datalake&#45;&gt;[root] random_string.name_prefix -->
<g id="edge2" class="edge"><title>[root] azuread_application.datalake&#45;&gt;[root] random_string.name_prefix</title>
<path fill="none" stroke="black" d="M962,-143.697C962,-135.983 962,-126.712 962,-118.112"/>
<polygon fill="black" stroke="black" points="965.5,-118.104 962,-108.104 958.5,-118.104 965.5,-118.104"/>
</g>
<!-- [root] azuread_service_principal.datalake -->
<g id="node2" class="node"><title>[root] azuread_service_principal.datalake</title>
<polygon fill="none" stroke="black" points="934,-252 664,-252 664,-216 934,-216 934,-252"/>
<text text-anchor="middle" x="799" y="-230.3" font-family="Times,serif" font-size="14.00">azuread_service_principal.datalake</text>
</g>
<!-- [root] azuread_service_principal.datalake&#45;&gt;[root] azuread_application.datalake -->
<g id="edge3" class="edge"><title>[root] azuread_service_principal.datalake&#45;&gt;[root] azuread_application.datalake</title>
<path fill="none" stroke="black" d="M838.874,-215.876C861.157,-206.307 889.115,-194.3 912.756,-184.148"/>
<polygon fill="black" stroke="black" points="914.448,-187.23 922.255,-180.068 911.686,-180.798 914.448,-187.23"/>
</g>
<!-- [root] azuread_service_principal_password.datalake -->
<g id="node3" class="node"><title>[root] azuread_service_principal_password.datalake</title>
<polygon fill="none" stroke="black" points="1513,-324 1167,-324 1167,-288 1513,-288 1513,-324"/>
<text text-anchor="middle" x="1340" y="-302.3" font-family="Times,serif" font-size="14.00">azuread_service_principal_password.datalake</text>
</g>
<!-- [root] azuread_service_principal_password.datalake&#45;&gt;[root] azuread_service_principal.datalake -->
<g id="edge4" class="edge"><title>[root] azuread_service_principal_password.datalake&#45;&gt;[root] azuread_service_principal.datalake</title>
<path fill="none" stroke="black" d="M1208.35,-287.966C1127.35,-277.485 1023.56,-264.056 940.763,-253.343"/>
<polygon fill="black" stroke="black" points="941.139,-249.862 930.773,-252.05 940.241,-256.804 941.139,-249.862"/>
</g>
<!-- [root] random_string.pw -->
<g id="node14" class="node"><title>[root] random_string.pw</title>
<polygon fill="none" stroke="black" points="1440.5,-252 1293.5,-252 1293.5,-216 1440.5,-216 1440.5,-252"/>
<text text-anchor="middle" x="1367" y="-230.3" font-family="Times,serif" font-size="14.00">random_string.pw</text>
</g>
<!-- [root] azuread_service_principal_password.datalake&#45;&gt;[root] random_string.pw -->
<g id="edge5" class="edge"><title>[root] azuread_service_principal_password.datalake&#45;&gt;[root] random_string.pw</title>
<path fill="none" stroke="black" d="M1346.67,-287.697C1349.71,-279.813 1353.38,-270.304 1356.76,-261.546"/>
<polygon fill="black" stroke="black" points="1360.07,-262.694 1360.4,-252.104 1353.54,-260.175 1360.07,-262.694"/>
</g>
<!-- [root] azurerm_databricks_workspace.example -->
<g id="node4" class="node"><title>[root] azurerm_databricks_workspace.example</title>
<polygon fill="none" stroke="black" points="310,-180 0,-180 0,-144 310,-144 310,-180"/>
<text text-anchor="middle" x="155" y="-158.3" font-family="Times,serif" font-size="14.00">azurerm_databricks_workspace.example</text>
</g>
<!-- [root] azurerm_resource_group.example -->
<g id="node5" class="node"><title>[root] azurerm_resource_group.example</title>
<polygon fill="none" stroke="black" points="745.5,-108 484.5,-108 484.5,-72 745.5,-72 745.5,-108"/>
<text text-anchor="middle" x="615" y="-86.3" font-family="Times,serif" font-size="14.00">azurerm_resource_group.example</text>
</g>
<!-- [root] azurerm_databricks_workspace.example&#45;&gt;[root] azurerm_resource_group.example -->
<g id="edge6" class="edge"><title>[root] azurerm_databricks_workspace.example&#45;&gt;[root] azurerm_resource_group.example</title>
<path fill="none" stroke="black" d="M266.94,-143.966C335.252,-133.57 422.626,-120.274 492.741,-109.605"/>
<polygon fill="black" stroke="black" points="493.597,-113.015 502.957,-108.05 492.544,-106.094 493.597,-113.015"/>
</g>
<!-- [root] provider.azurerm -->
<g id="node10" class="node"><title>[root] provider.azurerm</title>
<polygon fill="none" stroke="black" points="579,-36 450.136,-18 579,-3.55271e-15 707.864,-18 579,-36"/>
<text text-anchor="middle" x="579" y="-14.3" font-family="Times,serif" font-size="14.00">provider.azurerm</text>
</g>
<!-- [root] azurerm_resource_group.example&#45;&gt;[root] provider.azurerm -->
<g id="edge7" class="edge"><title>[root] azurerm_resource_group.example&#45;&gt;[root] provider.azurerm</title>
<path fill="none" stroke="black" d="M606.101,-71.6966C601.836,-63.4033 596.646,-53.3109 591.953,-44.1866"/>
<polygon fill="black" stroke="black" points="594.989,-42.4367 587.303,-35.1446 588.764,-45.6382 594.989,-42.4367"/>
</g>
<!-- [root] var.group_name -->
<g id="node23" class="node"><title>[root] var.group_name</title>
<polygon fill="none" stroke="black" points="850.5,-36 725.5,-36 725.5,-0 856.5,-0 856.5,-30 850.5,-36"/>
<polyline fill="none" stroke="black" points="850.5,-36 850.5,-30 "/>
<polyline fill="none" stroke="black" points="856.5,-30 850.5,-30 "/>
<text text-anchor="middle" x="791" y="-14.3" font-family="Times,serif" font-size="14.00">var.group_name</text>
</g>
<!-- [root] azurerm_resource_group.example&#45;&gt;[root] var.group_name -->
<g id="edge8" class="edge"><title>[root] azurerm_resource_group.example&#45;&gt;[root] var.group_name</title>
<path fill="none" stroke="black" d="M658.054,-71.8761C682.329,-62.2216 712.84,-50.0865 738.508,-39.8775"/>
<polygon fill="black" stroke="black" points="740.087,-43.0163 748.085,-36.0683 737.5,-36.5119 740.087,-43.0163"/>
</g>
<!-- [root] azurerm_role_assignment.datalake -->
<g id="node6" class="node"><title>[root] azurerm_role_assignment.datalake</title>
<polygon fill="none" stroke="black" points="894,-324 626,-324 626,-288 894,-288 894,-324"/>
<text text-anchor="middle" x="760" y="-302.3" font-family="Times,serif" font-size="14.00">azurerm_role_assignment.datalake</text>
</g>
<!-- [root] azurerm_role_assignment.datalake&#45;&gt;[root] azuread_service_principal.datalake -->
<g id="edge9" class="edge"><title>[root] azurerm_role_assignment.datalake&#45;&gt;[root] azuread_service_principal.datalake</title>
<path fill="none" stroke="black" d="M769.64,-287.697C774.127,-279.644 779.559,-269.894 784.524,-260.982"/>
<polygon fill="black" stroke="black" points="787.661,-262.544 789.47,-252.104 781.546,-259.137 787.661,-262.544"/>
</g>
<!-- [root] azurerm_storage_account.account -->
<g id="node7" class="node"><title>[root] azurerm_storage_account.account</title>
<polygon fill="none" stroke="black" points="820,-180 556,-180 556,-144 820,-144 820,-180"/>
<text text-anchor="middle" x="688" y="-158.3" font-family="Times,serif" font-size="14.00">azurerm_storage_account.account</text>
</g>
<!-- [root] azurerm_role_assignment.datalake&#45;&gt;[root] azurerm_storage_account.account -->
<g id="edge10" class="edge"><title>[root] azurerm_role_assignment.datalake&#45;&gt;[root] azurerm_storage_account.account</title>
<path fill="none" stroke="black" d="M699.435,-287.956C682.068,-279.957 665.114,-268.434 655,-252 642.772,-232.13 654.162,-207.017 666.787,-188.537"/>
<polygon fill="black" stroke="black" points="669.727,-190.446 672.789,-180.304 664.07,-186.323 669.727,-190.446"/>
</g>
<!-- [root] azurerm_storage_account.account&#45;&gt;[root] azurerm_resource_group.example -->
<g id="edge11" class="edge"><title>[root] azurerm_storage_account.account&#45;&gt;[root] azurerm_resource_group.example</title>
<path fill="none" stroke="black" d="M669.955,-143.697C660.938,-135.05 649.882,-124.449 640.057,-115.027"/>
<polygon fill="black" stroke="black" points="642.478,-112.499 632.837,-108.104 637.633,-117.552 642.478,-112.499"/>
</g>
<!-- [root] azurerm_storage_account.account&#45;&gt;[root] random_string.name_prefix -->
<g id="edge12" class="edge"><title>[root] azurerm_storage_account.account&#45;&gt;[root] random_string.name_prefix</title>
<path fill="none" stroke="black" d="M754.678,-143.966C794.127,-133.887 844.249,-121.082 885.328,-110.588"/>
<polygon fill="black" stroke="black" points="886.201,-113.977 895.023,-108.111 884.468,-107.195 886.201,-113.977"/>
</g>
<!-- [root] data.azuread_client_config.current -->
<g id="node8" class="node"><title>[root] data.azuread_client_config.current</title>
<polygon fill="none" stroke="black" points="1798.5,-324 1531.5,-324 1531.5,-288 1798.5,-288 1798.5,-324"/>
<text text-anchor="middle" x="1665" y="-302.3" font-family="Times,serif" font-size="14.00">data.azuread_client_config.current</text>
</g>
<!-- [root] data.azuread_client_config.current&#45;&gt;[root] provider.azuread -->
<g id="edge13" class="edge"><title>[root] data.azuread_client_config.current&#45;&gt;[root] provider.azuread</title>
<path fill="none" stroke="black" d="M1531.81,-288C1423.97,-273.999 1289.09,-255.846 1284,-252 1240.73,-219.325 1223.33,-154.573 1216.73,-117.925"/>
<polygon fill="black" stroke="black" points="1220.17,-117.245 1215.08,-107.952 1213.26,-118.39 1220.17,-117.245"/>
</g>
<!-- [root] provider.random -->
<g id="node11" class="node"><title>[root] provider.random</title>
<polygon fill="none" stroke="black" points="1183,-36 1058.83,-18 1183,-3.55271e-15 1307.17,-18 1183,-36"/>
<text text-anchor="middle" x="1183" y="-14.3" font-family="Times,serif" font-size="14.00">provider.random</text>
</g>
<!-- [root] provider.shell -->
<g id="node12" class="node"><title>[root] provider.shell</title>
<polygon fill="none" stroke="black" points="433,-180 328.432,-162 433,-144 537.568,-162 433,-180"/>
<text text-anchor="middle" x="433" y="-158.3" font-family="Times,serif" font-size="14.00">provider.shell</text>
</g>
<!-- [root] random_string.name_prefix&#45;&gt;[root] provider.random -->
<g id="edge23" class="edge"><title>[root] random_string.name_prefix&#45;&gt;[root] provider.random</title>
<path fill="none" stroke="black" d="M1015.78,-71.9656C1052.68,-60.2763 1101.17,-44.919 1136.42,-33.7526"/>
<polygon fill="black" stroke="black" points="1137.52,-37.077 1146,-30.7207 1135.41,-30.4038 1137.52,-37.077"/>
</g>
<!-- [root] random_string.pw&#45;&gt;[root] provider.random -->
<g id="edge24" class="edge"><title>[root] random_string.pw&#45;&gt;[root] provider.random</title>
<path fill="none" stroke="black" d="M1370.47,-215.666C1375.86,-183.423 1382.34,-113.721 1348,-72 1328.24,-47.9997 1297.56,-34.7391 1267.98,-27.4586"/>
<polygon fill="black" stroke="black" points="1268.54,-23.9959 1258.01,-25.2119 1267,-30.8247 1268.54,-23.9959"/>
</g>
<!-- [root] shell_script.cluster -->
<g id="node15" class="node"><title>[root] shell_script.cluster</title>
<polygon fill="none" stroke="black" points="419.5,-324 264.5,-324 264.5,-288 419.5,-288 419.5,-324"/>
<text text-anchor="middle" x="342" y="-302.3" font-family="Times,serif" font-size="14.00">shell_script.cluster</text>
</g>
<!-- [root] shell_script.pat_token -->
<g id="node16" class="node"><title>[root] shell_script.pat_token</title>
<polygon fill="none" stroke="black" points="521,-252 345,-252 345,-216 521,-216 521,-252"/>
<text text-anchor="middle" x="433" y="-230.3" font-family="Times,serif" font-size="14.00">shell_script.pat_token</text>
</g>
<!-- [root] shell_script.cluster&#45;&gt;[root] shell_script.pat_token -->
<g id="edge30" class="edge"><title>[root] shell_script.cluster&#45;&gt;[root] shell_script.pat_token</title>
<path fill="none" stroke="black" d="M364.494,-287.697C375.955,-278.881 390.058,-268.032 402.484,-258.474"/>
<polygon fill="black" stroke="black" points="404.972,-260.976 410.764,-252.104 400.704,-255.427 404.972,-260.976"/>
</g>
<!-- [root] shell_script.pat_token&#45;&gt;[root] azurerm_databricks_workspace.example -->
<g id="edge31" class="edge"><title>[root] shell_script.pat_token&#45;&gt;[root] azurerm_databricks_workspace.example</title>
<path fill="none" stroke="black" d="M365.349,-215.966C325.324,-205.887 274.47,-193.082 232.791,-182.588"/>
<polygon fill="black" stroke="black" points="233.506,-179.159 222.954,-180.111 231.797,-185.947 233.506,-179.159"/>
</g>
<!-- [root] shell_script.pat_token&#45;&gt;[root] provider.shell -->
<g id="edge32" class="edge"><title>[root] shell_script.pat_token&#45;&gt;[root] provider.shell</title>
<path fill="none" stroke="black" d="M433,-215.697C433,-207.983 433,-198.712 433,-190.112"/>
<polygon fill="black" stroke="black" points="436.5,-190.104 433,-180.104 429.5,-190.104 436.5,-190.104"/>
</g>
<!-- [root] shell_script.run_mount -->
<g id="node17" class="node"><title>[root] shell_script.run_mount</title>
<polygon fill="none" stroke="black" points="608,-468 426,-468 426,-432 608,-432 608,-468"/>
<text text-anchor="middle" x="517" y="-446.3" font-family="Times,serif" font-size="14.00">shell_script.run_mount</text>
</g>
<!-- [root] shell_script.run_mount&#45;&gt;[root] azurerm_storage_account.account -->
<g id="edge33" class="edge"><title>[root] shell_script.run_mount&#45;&gt;[root] azurerm_storage_account.account</title>
<path fill="none" stroke="black" d="M542.296,-431.775C554.482,-422.398 568.48,-409.885 578,-396 606.858,-353.909 598.797,-335.677 617,-288 629.305,-255.771 628.664,-245.826 646,-216 651.633,-206.308 658.907,-196.473 665.814,-187.949"/>
<polygon fill="black" stroke="black" points="668.539,-190.147 672.259,-180.227 663.164,-185.662 668.539,-190.147"/>
</g>
<!-- [root] shell_script.run_mount&#45;&gt;[root] shell_script.cluster -->
<g id="edge34" class="edge"><title>[root] shell_script.run_mount&#45;&gt;[root] shell_script.cluster</title>
<path fill="none" stroke="black" d="M425.586,-437.63C399.234,-429.94 372.821,-417.165 355,-396 340.743,-379.068 338.289,-353.6 338.938,-334.24"/>
<polygon fill="black" stroke="black" points="342.434,-334.404 339.563,-324.206 335.448,-333.969 342.434,-334.404"/>
</g>
<!-- [root] shell_script.secret_app_client_secret -->
<g id="node18" class="node"><title>[root] shell_script.secret_app_client_secret</title>
<polygon fill="none" stroke="black" points="1240,-396 956,-396 956,-360 1240,-360 1240,-396"/>
<text text-anchor="middle" x="1098" y="-374.3" font-family="Times,serif" font-size="14.00">shell_script.secret_app_client_secret</text>
</g>
<!-- [root] shell_script.run_mount&#45;&gt;[root] shell_script.secret_app_client_secret -->
<g id="edge35" class="edge"><title>[root] shell_script.run_mount&#45;&gt;[root] shell_script.secret_app_client_secret</title>
<path fill="none" stroke="black" d="M608.101,-438.024C698.763,-427.101 839.498,-410.145 946.907,-397.204"/>
<polygon fill="black" stroke="black" points="947.357,-400.675 956.866,-396.004 946.519,-393.725 947.357,-400.675"/>
</g>
<!-- [root] shell_script.secret_app_tenant -->
<g id="node19" class="node"><title>[root] shell_script.secret_app_tenant</title>
<polygon fill="none" stroke="black" points="1495.5,-396 1258.5,-396 1258.5,-360 1495.5,-360 1495.5,-396"/>
<text text-anchor="middle" x="1377" y="-374.3" font-family="Times,serif" font-size="14.00">shell_script.secret_app_tenant</text>
</g>
<!-- [root] shell_script.run_mount&#45;&gt;[root] shell_script.secret_app_tenant -->
<g id="edge36" class="edge"><title>[root] shell_script.run_mount&#45;&gt;[root] shell_script.secret_app_tenant</title>
<path fill="none" stroke="black" d="M608.161,-444.155C744.818,-436.501 1011.11,-420.074 1248.28,-396.036"/>
<polygon fill="black" stroke="black" points="1248.88,-399.492 1258.48,-394.995 1248.17,-392.528 1248.88,-399.492"/>
</g>
<!-- [root] shell_script.secret_sp_applicationid -->
<g id="node21" class="node"><title>[root] shell_script.secret_sp_applicationid</title>
<polygon fill="none" stroke="black" points="938,-396 664,-396 664,-360 938,-360 938,-396"/>
<text text-anchor="middle" x="801" y="-374.3" font-family="Times,serif" font-size="14.00">shell_script.secret_sp_applicationid</text>
</g>
<!-- [root] shell_script.run_mount&#45;&gt;[root] shell_script.secret_sp_applicationid -->
<g id="edge37" class="edge"><title>[root] shell_script.run_mount&#45;&gt;[root] shell_script.secret_sp_applicationid</title>
<path fill="none" stroke="black" d="M586.111,-431.966C627.086,-421.866 679.17,-409.028 721.799,-398.521"/>
<polygon fill="black" stroke="black" points="722.707,-401.902 731.579,-396.111 721.032,-395.106 722.707,-401.902"/>
</g>
<!-- [root] shell_script.upload_assets -->
<g id="node22" class="node"><title>[root] shell_script.upload_assets</title>
<polygon fill="none" stroke="black" points="569.5,-396 364.5,-396 364.5,-360 569.5,-360 569.5,-396"/>
<text text-anchor="middle" x="467" y="-374.3" font-family="Times,serif" font-size="14.00">shell_script.upload_assets</text>
</g>
<!-- [root] shell_script.run_mount&#45;&gt;[root] shell_script.upload_assets -->
<g id="edge38" class="edge"><title>[root] shell_script.run_mount&#45;&gt;[root] shell_script.upload_assets</title>
<path fill="none" stroke="black" d="M504.64,-431.697C498.767,-423.474 491.631,-413.483 485.158,-404.421"/>
<polygon fill="black" stroke="black" points="487.878,-402.207 479.217,-396.104 482.182,-406.276 487.878,-402.207"/>
</g>
<!-- [root] shell_script.secret_app_client_secret&#45;&gt;[root] azuread_service_principal_password.datalake -->
<g id="edge39" class="edge"><title>[root] shell_script.secret_app_client_secret&#45;&gt;[root] azuread_service_principal_password.datalake</title>
<path fill="none" stroke="black" d="M1156.89,-359.966C1191.29,-350.015 1234.88,-337.406 1270.9,-326.987"/>
<polygon fill="black" stroke="black" points="1272.21,-330.252 1280.85,-324.111 1270.27,-323.527 1272.21,-330.252"/>
</g>
<!-- [root] shell_script.secret_scope -->
<g id="node20" class="node"><title>[root] shell_script.secret_scope</title>
<polygon fill="none" stroke="black" points="1149,-324 951,-324 951,-288 1149,-288 1149,-324"/>
<text text-anchor="middle" x="1050" y="-302.3" font-family="Times,serif" font-size="14.00">shell_script.secret_scope</text>
</g>
<!-- [root] shell_script.secret_app_client_secret&#45;&gt;[root] shell_script.secret_scope -->
<g id="edge40" class="edge"><title>[root] shell_script.secret_app_client_secret&#45;&gt;[root] shell_script.secret_scope</title>
<path fill="none" stroke="black" d="M1086.13,-359.697C1080.5,-351.474 1073.65,-341.483 1067.43,-332.421"/>
<polygon fill="black" stroke="black" points="1070.27,-330.372 1061.73,-324.104 1064.5,-334.331 1070.27,-330.372"/>
</g>
<!-- [root] shell_script.secret_app_tenant&#45;&gt;[root] azuread_service_principal_password.datalake -->
<g id="edge41" class="edge"><title>[root] shell_script.secret_app_tenant&#45;&gt;[root] azuread_service_principal_password.datalake</title>
<path fill="none" stroke="black" d="M1367.85,-359.697C1363.6,-351.644 1358.44,-341.894 1353.73,-332.982"/>
<polygon fill="black" stroke="black" points="1356.81,-331.31 1349.04,-324.104 1350.62,-334.581 1356.81,-331.31"/>
</g>
<!-- [root] shell_script.secret_app_tenant&#45;&gt;[root] data.azuread_client_config.current -->
<g id="edge42" class="edge"><title>[root] shell_script.secret_app_tenant&#45;&gt;[root] data.azuread_client_config.current</title>
<path fill="none" stroke="black" d="M1447.08,-359.966C1488.64,-349.866 1541.45,-337.028 1584.68,-326.521"/>
<polygon fill="black" stroke="black" points="1585.71,-329.874 1594.6,-324.111 1584.06,-323.072 1585.71,-329.874"/>
</g>
<!-- [root] shell_script.secret_app_tenant&#45;&gt;[root] shell_script.secret_scope -->
<g id="edge43" class="edge"><title>[root] shell_script.secret_app_tenant&#45;&gt;[root] shell_script.secret_scope</title>
<path fill="none" stroke="black" d="M1297.42,-359.966C1249.76,-349.762 1189.04,-336.764 1139.68,-326.198"/>
<polygon fill="black" stroke="black" points="1140.16,-322.721 1129.65,-324.05 1138.69,-329.566 1140.16,-322.721"/>
</g>
<!-- [root] shell_script.secret_scope&#45;&gt;[root] shell_script.pat_token -->
<g id="edge44" class="edge"><title>[root] shell_script.secret_scope&#45;&gt;[root] shell_script.pat_token</title>
<path fill="none" stroke="black" d="M950.768,-293.485C934.796,-291.643 918.443,-289.764 903,-288 774.693,-273.347 626.652,-256.695 531.547,-246.03"/>
<polygon fill="black" stroke="black" points="531.693,-242.525 521.365,-244.889 530.913,-249.481 531.693,-242.525"/>
</g>
<!-- [root] shell_script.secret_sp_applicationid&#45;&gt;[root] azuread_application.datalake -->
<g id="edge45" class="edge"><title>[root] shell_script.secret_sp_applicationid&#45;&gt;[root] azuread_application.datalake</title>
<path fill="none" stroke="black" d="M847.074,-359.998C866.026,-351.35 887.191,-339.374 903,-324 940.327,-287.699 954.19,-225.847 959.227,-190.304"/>
<polygon fill="black" stroke="black" points="962.725,-190.538 960.523,-180.175 955.782,-189.65 962.725,-190.538"/>
</g>
<!-- [root] shell_script.secret_sp_applicationid&#45;&gt;[root] shell_script.secret_scope -->
<g id="edge46" class="edge"><title>[root] shell_script.secret_sp_applicationid&#45;&gt;[root] shell_script.secret_scope</title>
<path fill="none" stroke="black" d="M861.594,-359.966C897.141,-349.972 942.224,-337.298 979.377,-326.854"/>
<polygon fill="black" stroke="black" points="980.455,-330.187 989.134,-324.111 978.56,-323.448 980.455,-330.187"/>
</g>
<!-- [root] shell_script.upload_assets&#45;&gt;[root] shell_script.pat_token -->
<g id="edge47" class="edge"><title>[root] shell_script.upload_assets&#45;&gt;[root] shell_script.pat_token</title>
<path fill="none" stroke="black" d="M462.899,-359.871C457.079,-335.564 446.365,-290.819 439.468,-262.013"/>
<polygon fill="black" stroke="black" points="442.848,-261.099 437.116,-252.189 436.041,-262.729 442.848,-261.099"/>
</g>
<!-- [root] meta.count&#45;boundary (EachMode fixup) -->
<g id="node24" class="node"><title>[root] meta.count&#45;boundary (EachMode fixup)</title>
<ellipse fill="none" stroke="black" cx="846" cy="-522" rx="224.46" ry="18"/>
<text text-anchor="middle" x="846" y="-518.3" font-family="Times,serif" font-size="14.00">[root] meta.count&#45;boundary (EachMode fixup)</text>
</g>
<!-- [root] meta.count&#45;boundary (EachMode fixup)&#45;&gt;[root] azurerm_role_assignment.datalake -->
<g id="edge14" class="edge"><title>[root] meta.count&#45;boundary (EachMode fixup)&#45;&gt;[root] azurerm_role_assignment.datalake</title>
<path fill="none" stroke="black" d="M796.552,-504.285C750.556,-485.786 684.78,-451.08 655,-396 647.39,-381.925 646.614,-373.626 655,-360 663.296,-346.519 676.196,-336.343 690.151,-328.706"/>
<polygon fill="black" stroke="black" points="692.069,-331.659 699.435,-324.044 688.928,-325.403 692.069,-331.659"/>
</g>
<!-- [root] meta.count&#45;boundary (EachMode fixup)&#45;&gt;[root] shell_script.run_mount -->
<g id="edge15" class="edge"><title>[root] meta.count&#45;boundary (EachMode fixup)&#45;&gt;[root] shell_script.run_mount</title>
<path fill="none" stroke="black" d="M770.933,-505.028C722.115,-494.642 658.199,-481.042 606.706,-470.086"/>
<polygon fill="black" stroke="black" points="607.422,-466.66 596.912,-468.003 605.965,-473.507 607.422,-466.66"/>
</g>
<!-- [root] provider.azuread (close) -->
<g id="node25" class="node"><title>[root] provider.azuread (close)</title>
<ellipse fill="none" stroke="black" cx="1665" cy="-378" rx="151.373" ry="18"/>
<text text-anchor="middle" x="1665" y="-374.3" font-family="Times,serif" font-size="14.00">[root] provider.azuread (close)</text>
</g>
<!-- [root] provider.azuread (close)&#45;&gt;[root] azuread_service_principal_password.datalake -->
<g id="edge16" class="edge"><title>[root] provider.azuread (close)&#45;&gt;[root] azuread_service_principal_password.datalake</title>
<path fill="none" stroke="black" d="M1595.28,-361.983C1546.66,-351.51 1481.36,-337.448 1428.98,-326.166"/>
<polygon fill="black" stroke="black" points="1429.54,-322.705 1419.03,-324.021 1428.06,-329.548 1429.54,-322.705"/>
</g>
<!-- [root] provider.azuread (close)&#45;&gt;[root] data.azuread_client_config.current -->
<g id="edge17" class="edge"><title>[root] provider.azuread (close)&#45;&gt;[root] data.azuread_client_config.current</title>
<path fill="none" stroke="black" d="M1665,-359.697C1665,-351.983 1665,-342.712 1665,-334.112"/>
<polygon fill="black" stroke="black" points="1668.5,-334.104 1665,-324.104 1661.5,-334.104 1668.5,-334.104"/>
</g>
<!-- [root] provider.azurerm (close) -->
<g id="node26" class="node"><title>[root] provider.azurerm (close)</title>
<ellipse fill="none" stroke="black" cx="155" cy="-378" rx="153.273" ry="18"/>
<text text-anchor="middle" x="155" y="-374.3" font-family="Times,serif" font-size="14.00">[root] provider.azurerm (close)</text>
</g>
<!-- [root] provider.azurerm (close)&#45;&gt;[root] azurerm_databricks_workspace.example -->
<g id="edge18" class="edge"><title>[root] provider.azurerm (close)&#45;&gt;[root] azurerm_databricks_workspace.example</title>
<path fill="none" stroke="black" d="M155,-359.849C155,-322.832 155,-235.181 155,-190.386"/>
<polygon fill="black" stroke="black" points="158.5,-190.232 155,-180.232 151.5,-190.232 158.5,-190.232"/>
</g>
<!-- [root] provider.azurerm (close)&#45;&gt;[root] azurerm_role_assignment.datalake -->
<g id="edge19" class="edge"><title>[root] provider.azurerm (close)&#45;&gt;[root] azurerm_role_assignment.datalake</title>
<path fill="none" stroke="black" d="M260.037,-364.847C358.395,-353.467 506.216,-336.363 615.636,-323.703"/>
<polygon fill="black" stroke="black" points="616.237,-327.157 625.769,-322.531 615.433,-320.204 616.237,-327.157"/>
</g>
<!-- [root] provider.random (close) -->
<g id="node27" class="node"><title>[root] provider.random (close)</title>
<ellipse fill="none" stroke="black" cx="1967" cy="-306" rx="150.273" ry="18"/>
<text text-anchor="middle" x="1967" y="-302.3" font-family="Times,serif" font-size="14.00">[root] provider.random (close)</text>
</g>
<!-- [root] provider.random (close)&#45;&gt;[root] random_string.name_prefix -->
<g id="edge20" class="edge"><title>[root] provider.random (close)&#45;&gt;[root] random_string.name_prefix</title>
<path fill="none" stroke="black" d="M1896.73,-290.037C1718.65,-252.118 1249.8,-152.283 1052.03,-110.172"/>
<polygon fill="black" stroke="black" points="1052.48,-106.687 1041.97,-108.028 1051.02,-113.534 1052.48,-106.687"/>
</g>
<!-- [root] provider.random (close)&#45;&gt;[root] random_string.pw -->
<g id="edge21" class="edge"><title>[root] provider.random (close)&#45;&gt;[root] random_string.pw</title>
<path fill="none" stroke="black" d="M1863.51,-292.927C1746.77,-279.306 1559.12,-257.413 1451.04,-244.804"/>
<polygon fill="black" stroke="black" points="1451.17,-241.296 1440.83,-243.614 1450.36,-248.249 1451.17,-241.296"/>
</g>
<!-- [root] provider.shell (close) -->
<g id="node28" class="node"><title>[root] provider.shell (close)</title>
<ellipse fill="none" stroke="black" cx="467" cy="-522" rx="136.476" ry="18"/>
<text text-anchor="middle" x="467" y="-518.3" font-family="Times,serif" font-size="14.00">[root] provider.shell (close)</text>
</g>
<!-- [root] provider.shell (close)&#45;&gt;[root] shell_script.run_mount -->
<g id="edge22" class="edge"><title>[root] provider.shell (close)&#45;&gt;[root] shell_script.run_mount</title>
<path fill="none" stroke="black" d="M479.104,-504.055C484.973,-495.837 492.149,-485.791 498.671,-476.66"/>
<polygon fill="black" stroke="black" points="501.696,-478.447 504.661,-468.275 496,-474.378 501.696,-478.447"/>
</g>
<!-- [root] root -->
<g id="node29" class="node"><title>[root] root</title>
<ellipse fill="none" stroke="black" cx="846" cy="-594" rx="58.4896" ry="18"/>
<text text-anchor="middle" x="846" y="-590.3" font-family="Times,serif" font-size="14.00">[root] root</text>
</g>
<!-- [root] root&#45;&gt;[root] meta.count&#45;boundary (EachMode fixup) -->
<g id="edge25" class="edge"><title>[root] root&#45;&gt;[root] meta.count&#45;boundary (EachMode fixup)</title>
<path fill="none" stroke="black" d="M846,-575.697C846,-567.983 846,-558.712 846,-550.112"/>
<polygon fill="black" stroke="black" points="849.5,-550.104 846,-540.104 842.5,-550.104 849.5,-550.104"/>
</g>
<!-- [root] root&#45;&gt;[root] provider.azuread (close) -->
<g id="edge26" class="edge"><title>[root] root&#45;&gt;[root] provider.azuread (close)</title>
<path fill="none" stroke="black" d="M892.563,-583.047C939.7,-572.821 1014.62,-556.157 1079,-540 1269.53,-492.182 1492.89,-428.757 1600.54,-397.721"/>
<polygon fill="black" stroke="black" points="1601.64,-401.046 1610.28,-394.91 1599.7,-394.32 1601.64,-401.046"/>
</g>
<!-- [root] root&#45;&gt;[root] provider.azurerm (close) -->
<g id="edge27" class="edge"><title>[root] root&#45;&gt;[root] provider.azurerm (close)</title>
<path fill="none" stroke="black" d="M787.901,-591.875C669.292,-588.813 403.613,-577.821 322,-540 255.867,-509.353 199.772,-441.566 172.577,-404.473"/>
<polygon fill="black" stroke="black" points="175.288,-402.248 166.604,-396.179 169.608,-406.339 175.288,-402.248"/>
</g>
<!-- [root] root&#45;&gt;[root] provider.random (close) -->
<g id="edge28" class="edge"><title>[root] root&#45;&gt;[root] provider.random (close)</title>
<path fill="none" stroke="black" d="M897.197,-585.223C959.981,-575.506 1069.57,-557.96 1163,-540 1458.69,-483.157 1546.17,-509.647 1825,-396 1866.51,-379.082 1909.49,-350.293 1937.13,-330.049"/>
<polygon fill="black" stroke="black" points="1939.25,-332.832 1945.2,-324.063 1935.08,-327.211 1939.25,-332.832"/>
</g>
<!-- [root] root&#45;&gt;[root] provider.shell (close) -->
<g id="edge29" class="edge"><title>[root] root&#45;&gt;[root] provider.shell (close)</title>
<path fill="none" stroke="black" d="M797.228,-583.992C735.523,-572.595 628.21,-552.775 552.699,-538.828"/>
<polygon fill="black" stroke="black" points="553.197,-535.361 542.728,-536.987 551.926,-542.245 553.197,-535.361"/>
</g>
</g>
</svg>
